# AST/ASF file generated using VICON BodyLanguage
# -----------------------------------------------
:version 1.10
:name VICON
:units
  mass 1.0
  length 0.45
  angle deg
:documentation
   .ast/.asf automatically generated from VICON data using
   VICON BodyBuilder and BodyLanguage model FoxedUp or BRILLIANT.MOD
:root
   order TX TY TZ RX RY RZ
   axis XYZ
   position 0 0 0  
   orientation 0 0 0 
:bonedata
  begin
     id 1 
     name lhipjoint
     direction 0.537252 -0.787203 0.302774 
     length 2.29576 
     axis 0 0 0  XYZ
  end
  begin
     id 2 
     name lfemur
     direction 0.34202 -0.939693 0  
     length 7.31114  
     axis 0 0 20  XYZ
    dof rx ry rz
    limits (-160.0 20.0)
           (-70.0 70.0)
           (-60.0 70.0)
  end
  begin
     id 3 
     name ltibia
     direction 0.34202 -0.939693 0   
     length 8.36008   
     axis 0 0 20   XYZ
    dof rx
    limits (-10.0 170.0)
  end
  begin
     id 4 
     name lfoot
     direction 0.0969116 -0.266263 0.959016   
     length 2.16704   
     axis -90 7.62852e-016 20   XYZ
    dof rx rz
    limits (-45.0 90.0)
           (-70.0 20.0)
  end
  begin
     id 5 
     name ltoes
     direction 1.53563e-011 -4.21779e-011 1   
     length 1.08338   
     axis -90 7.62852e-016 20   XYZ
    dof rx
    limits (-90.0 20.0)
  end
  begin
     id 6 
     name rhipjoint
     direction -0.588228 -0.754791 0.290308   
     length 2.39434  
     axis 0 0 0  XYZ 
  end
  begin
     id 7 
     name rfemur
     direction -0.34202 -0.939693 0   
     length 7.45207   
     axis 0 0 -20   XYZ
    dof rx ry rz
    limits (-160.0 20.0)
           (-70.0 70.0)
           (-70.0 60.0)
  end
  begin
     id 8 
     name rtibia
     direction -0.34202 -0.939693 0   
     length 8.03565   
     axis 0 0 -20   XYZ
    dof rx
    limits (-10.0 170.0)
 end
 begin
     id 9 
     name rfoot
     direction -0.107009 -0.294004 0.949795   
     length 2.11509  
     axis -90 -7.62852e-016 -20   XYZ
    dof rx rz
    limits (-45.0 90.0)
           (-20.0 70.0)
  end
  begin
     id 10 
     name rtoes
     direction -1.53533e-011 -4.22004e-011 1   
     length 1.05493   
     axis -90 -7.62852e-016 -20   XYZ
    dof rx
    limits (-90.0 20.0)
  end
  begin
     id 11 
     name lowerback
     direction -0.0115208 0.997969 -0.0626515   
     length 2.03153   
     axis 0 0 0   XYZ
    dof rx ry rz
    limits (-20.0 45.0)
           (-30.0 30.0)
           (-30.0 30.0)
  end
  begin
     id 12 
     name upperback
     direction -0.00423475 0.999974 -0.00583614   
     length 2.03619   
     axis 0 0 0   XYZ
    dof rx ry rz
    limits (-20.0 45.0)
           (-30.0 30.0)
           (-30.0 30.0)
  end
  begin
     id 13 
     name thorax
     direction 0.00289429 0.999728 0.0231573   
     length 2.03921   
     axis 0 0 0   XYZ
    dof rx ry rz
    limits (-20.0 45.0)
           (-30.0 30.0)
           (-30.0 30.0)
  end
  begin
     id 14 
     name lowerneck
     direction 0.0188995 0.987777 0.154721   
     length 1.78836   
     axis 0 0 0   XYZ
    dof rx ry rz
    limits (-20.0 45.0)
           (-30.0 30.0)
           (-30.0 30.0)
  end
  begin
     id 15 
     name upperneck
     direction -0.00612612 0.992995 -0.118   
     length 1.81789   
     axis 0 0 0   XYZ
    dof rx ry rz
    limits (-20.0 45.0)
           (-30.0 30.0)
           (-30.0 30.0)
  end
  begin
     id 16
     name head
     direction -0.00420226 0.998397 -0.0564482  
     length 1.82234  
     axis 0 0 0   XYZ
    dof rx ry rz
    limits (-20.0 45.0)
           (-30.0 30.0)
           (-30.0 30.0)
  end
  begin
     id 17 
     name lclavicle
     direction 0.916488 0.396539 0.0529676  
     length 3.51732  
     axis 0 0 0   XYZ
    dof ry rz
    limits (-20.0 10.0)
           (0.0 20.0)
  end
  begin
     id 18 
     name lhumerus
     direction 1 -4.4896e-011 8.36962e-028   
     length 5.45077   
     axis 180 -30 -90   XYZ
    dof rx ry rz
    limits (-60.0 90.0)
           (-90.0 90.0)
           (-90.0 90.0)
  end
  begin
     id 19
     name lradius
     direction 1 -4.48962e-011 3.01407e-027   
     length 3.05488   
     axis 180 -30 -90   XYZ
    dof rx
    limits (-10.0 170.0)
  end
  begin
     id 20
     name lwrist
     direction 1 -4.49002e-011 4.72961e-027   
     length 1.52744   
     axis -2.72261e-015 90 90   XYZ
    dof ry
    limits (-180.0 0.0)
 end
  begin
     id 21 
     name lhand
     direction 1 -4.4899e-011 9.45681e-027   
     length 0.638818   
     axis -6.0311e-015 90 90   XYZ
    dof rx rz
    limits (-90.0 90.0)
           (-45.0 45.0)
  end
  begin
     id 22 
     name lfingers
     direction 1 -4.48871e-011 1.88632e-026   
     length 0.515032   
     axis -1.20625e-014 90 90   XYZ
    dof rx
    limits (0.0 90.0)
  end
  begin
     id 23
     name lthumb
     direction 0.707107 -6.34964e-011 0.707107   
     length 0.739485   
     axis -90 45 6.32835e-014   XYZ
    dof rx rz
    limits (-45.0 45.0)
           (-45.0 45.0)
  end
  begin
     id 24 
     name rclavicle
     direction -0.949427 0.303202 0.0815894   
     length 3.76167  
     axis 0 0 0   XYZ 
    dof ry rz
    limits (-10.0 20.0)
           (-20.0 0.0)
  end
  begin
     id 25 
     name rhumerus
     direction -1 -4.48971e-011 -6.43969e-018  
     length 4.88702   
     axis 180 30 90   XYZ
    dof rx ry rz
    limits (-90.0 60.0)
           (-90.0 90.0)
           (-90.0 90.0)
  end
  begin
     id 26 
     name rradius
     direction -1 -4.48987e-011 5.46662e-027   
     length 3.22603   
     axis 180 30 90   XYZ
    dof rx
    limits (-10.0 170.0)
  end
  begin
     id 27 
     name rwrist
     direction -1 -4.48956e-011 4.72476e-027   
     length 1.61302   
     axis -2.72261e-015 -90 -90   XYZ
    dof ry
    limits (-180.0 0.0)
  end
  begin
     id 28
     name rhand
     direction -1 -4.4889e-011 9.43571e-027   
     length 0.716293   
     axis -6.0311e-015 -90 -90   XYZ
    dof rx rz
    limits (-90.0 90.0)
           (-45.0 45.0)
  end
  begin
     id 29
     name rfingers
     direction -1 -4.48887e-011 1.88701e-026   
     length 0.577494   
     axis -1.20625e-014 -90 -90   XYZ
    dof rx
    limits (0.0 90.0)
  end
  begin
     id 30
     name rthumb
     direction -0.707107 -6.34825e-011 0.707107   
     length 0.829169   
     axis -90 -45 -6.32835e-014   XYZ
    dof rx rz
    limits (-45.0 45.0)
           (-45.0 45.0)
  end
:hierarchy
  begin
    root lhipjoint rhipjoint lowerback
    lhipjoint lfemur
    lfemur ltibia
    ltibia lfoot
    lfoot ltoes
    rhipjoint rfemur
    rfemur rtibia
    rtibia rfoot
    rfoot rtoes
    lowerback upperback
    upperback thorax
    thorax lowerneck lclavicle rclavicle
    lowerneck upperneck
    upperneck head
    lclavicle lhumerus
    lhumerus lradius
    lradius lwrist
    lwrist lhand lthumb
    lhand lfingers
    rclavicle rhumerus
    rhumerus rradius
    rradius rwrist
    rwrist rhand rthumb
    rhand rfingers
  end

#!OML:ASF F:\VICON\USERDATA\INSTALL\rory3\rory3.ASF
:FULLY-SPECIFIED
:DEGREES
676
root 1.37132 18.527 -0.203232 151.179 82.5301 140.483
lowerback -8.57509 -1.97065 3.59156
upperback -1.34082 -2.99158 4.91137
thorax 3.49456 -1.40495 2.74634
lowerneck -15.3283 0.61301 3.16203
upperneck 21.5223 3.18308 -11.4596
head 9.57821 0.629027 -4.10335
rclavicle -2.0276e-014 3.18055e-014
rhumerus -34.0417 -10.066 -76.4304
rradius 82.9416
rwrist 146.492
rhand -7.2305 -7.30597
rfingers 7.12502
rthumb 18.6491 -36.432
lclavicle -2.0276e-014 3.18055e-014
lhumerus 15.294 -4.13457 8.76343
lradius 93.2849
lwrist -5.31858
lhand -8.24353 11.3798
lfingers 7.12502
lthumb 17.6745 40.5965
rfemur -8.55713 -8.61228 11.5249
rtibia 8.81122
rfoot -10.1489 2.76448
rtoes -14.7112
lfemur -14.0651 8.48755 -25.6457
ltibia 15.9036
lfoot -11.3784 -10.1416
ltoes -22.7827
677
root 1.37869 18.5262 -0.217537 146.332 83.1013 135.633
lowerback -8.66776 -2.06333 3.51897
upperback -1.28523 -3.12193 4.90161
thorax 3.61085 -1.47109 2.75796
lowerneck -15.1967 0.973723 3.41465
upperneck 21.4293 3.68424 -11.7225
head 9.57403 0.862029 -4.17332
rclavicle 1.64991e-014 3.81667e-014
rhumerus -34.3998 -9.54887 -76.408
rradius 83.1889
rwrist 146.646
rhand -6.96053 -6.02871
rfingers 7.12502
rthumb 18.9088 -35.1296
lclavicle 1.64991e-014 3.81667e-014
lhumerus 15.9138 -4.37724 8.72497
lradius 92.5087
lwrist -5.69884
lhand -8.10497 11.1751
lfingers 7.12502
lthumb 17.8078 40.3797
rfemur -8.75504 -7.82688 11.2389
rtibia 8.90647
rfoot -10.1456 2.7288
rtoes -14.8041
lfemur -13.9438 8.65785 -25.8349
ltibia 15.8334
lfoot -11.4737 -9.60932
ltoes -22.8686
678
root 1.38601 18.526 -0.232079 141.303 83.6532 130.613
lowerback -8.66869 -2.15889 3.5284
upperback -1.25896 -3.25436 4.88976
thorax 3.64087 -1.5376 2.72433
lowerneck -15.1632 1.37062 3.75321
upperneck 21.409 4.22415 -11.9946
head 9.62226 1.11418 -4.25952
rclavicle -2.26615e-014 -4.45278e-014
rhumerus -34.8128 -9.10347 -76.4466
rradius 83.5327
rwrist 146.994
rhand -6.98944 -5.33745
rfingers 7.12502
rthumb 18.881 -34.4411
lclavicle -2.26615e-014 -4.45278e-014
lhumerus 16.4733 -4.67893 8.64019
lradius 91.8136
lwrist -6.22318
lhand -8.07295 10.9965
lfingers 7.12502
lthumb 17.8386 40.1983
rfemur -8.92873 -7.05341 11.0486
rtibia 8.98435
rfoot -10.1 2.7318
rtoes -14.5985
lfemur -13.812 8.81757 -25.9309
ltibia 15.7543
lfoot -11.5161 -9.05936
ltoes -22.4777
679
root 1.3899 18.5268 -0.245904 135.11 84.2194 124.439
lowerback -8.56193 -2.26367 3.52496
upperback -1.22246 -3.39222 4.90558
thorax 3.62396 -1.60766 2.72982
lowerneck -15.2374 1.79278 4.084
upperneck 21.41 4.79143 -12.2266
head 9.70406 1.37729 -4.32717
rclavicle 9.14409e-015 1.27222e-014
rhumerus -35.1536 -8.72039 -76.4805
rradius 83.7678
rwrist 147.131
rhand -7.50247 -5.0039
rfingers 7.12502
rthumb 18.3875 -34.1548
lclavicle 9.14409e-015 1.27222e-014
lhumerus 16.9533 -5.01035 8.54357
lradius 91.0278
lwrist -6.79986
lhand -8.50663 10.7602
lfingers 7.12502
lthumb 17.4213 39.9995
rfemur -9.12338 -6.20918 10.8949
rtibia 9.06992
rfoot -10.0632 2.71634
rtoes -14.3066
lfemur -13.6801 9.14618 -26.0136
ltibia 15.6743
lfoot -11.6456 -8.5496
ltoes -22.869
680
root 1.3909 18.5263 -0.262256 127.033 84.6848 116.324
lowerback -8.49791 -2.32533 3.52254
upperback -1.19303 -3.47458 4.9025
thorax 3.62094 -1.64993 2.72021
lowerneck -15.2836 2.18717 4.39168
upperneck 21.4057 5.32978 -12.4697
head 9.77954 1.62515 -4.39725
rclavicle -3.77691e-014 6.36111e-015
rhumerus -35.4296 -8.50154 -76.4171
rradius 83.8366
rwrist 146.888
rhand -8.42819 -5.06563
rfingers 7.12502
rthumb 17.4968 -34.2982
lclavicle -3.77691e-014 6.36111e-015
lhumerus 17.4995 -5.36838 8.57563
lradius 90.2107
lwrist -7.23375
lhand -9.01882 10.3638
lfingers 7.12502
lthumb 16.9283 39.6461
rfemur -9.39875 -5.33986 10.6599
rtibia 9.15786
rfoot -10.0219 2.66235
rtoes -14.8514
lfemur -13.6287 9.41451 -26.1693
ltibia 15.6173
lfoot -11.7778 -7.9857
ltoes -23.1419
681
root 1.39139 18.5253 -0.276473 117.455 84.904 106.706
lowerback -8.46943 -2.40024 3.37004
upperback -1.14762 -3.56588 4.87862
thorax 3.66257 -1.6992 2.77006
lowerneck -15.2322 2.55121 4.63891
upperneck 21.2643 5.82161 -12.7014
head 9.78478 1.8538 -4.45377
rclavicle 4.77083e-015 2.22639e-014
rhumerus -35.6737 -8.24673 -76.3812
rradius 83.9522
rwrist 146.649
rhand -8.86114 -4.76678
rfingers 7.12502
rthumb 17.0801 -34.036
lclavicle 4.77083e-015 2.22639e-014
lhumerus 17.945 -5.68852 8.58851
lradius 89.531
lwrist -7.49433
lhand -9.40292 10.261
lfingers 7.12502
lthumb 16.5586 39.5745
rfemur -9.71462 -4.51649 10.2905
rtibia 9.32447
rfoot -10.0108 2.60838
rtoes -14.498
lfemur -13.586 9.63984 -26.4421
ltibia 15.5502
lfoot -11.8945 -7.39368
ltoes -23.4933
